<svg xmlns="http://www.w3.org/2000/svg" width="80" height="95.113" viewBox="0 0 80 95.113"><path fill="none" stroke="#231F20" stroke-width="3.9" stroke-miterlimit="10" d="M0 38.005c6.663 0 6.663 7.801 13.327 7.801 6.665 0 6.665-7.801 13.33-7.801 6.667 0 6.667 7.801 13.334 7.801 6.666 0 6.666-7.801 13.331-7.801 6.67 0 6.67 7.801 13.339 7.801S73.33 38.005 80 38.005M0 61.684c6.663 0 6.663 7.801 13.327 7.801 6.665 0 6.665-7.801 13.33-7.801 6.667 0 6.667 7.801 13.334 7.801 6.666 0 6.666-7.801 13.331-7.801 6.67 0 6.67 7.801 13.339 7.801S73.33 61.684 80 61.684M0 85.362c6.663 0 6.663 7.801 13.327 7.801 6.665 0 6.665-7.801 13.33-7.801 6.667 0 6.667 7.801 13.334 7.801 6.666 0 6.666-7.801 13.331-7.801 6.67 0 6.67 7.801 13.339 7.801S73.33 85.362 80 85.362"/><text transform="translate(19.979 20.596)" font-family="'ArialMT'" font-size="24">100</text></svg>